<?xml version="1.0" encoding="utf-8"?>
<!-- Generator: Adobe Illustrator 17.0.0, SVG Export Plug-In . SVG Version: 6.00 Build 0)  -->
<!DOCTYPE svg PUBLIC "-//W3C//DTD SVG 1.1//EN" "http://www.w3.org/Graphics/SVG/1.1/DTD/svg11.dtd">
<svg version="1.1" id="Calque_1" xmlns="http://www.w3.org/2000/svg" xmlns:xlink="http://www.w3.org/1999/xlink" x="0px" y="0px"
	 width="960px" height="690px" viewBox="0 0 960 690" enable-background="new 0 0 960 690" xml:space="preserve">
<path d="M291,94h398V19H243v75c219,123,336,270,440,565h66C660,349,499,168,325,67L291,94z M509,247l-47-58c-181,0-263,106-263,234
	c0,129,111,247,261,247c235,0,302-197,302-402h-65c0,173-72,331-233,331c-112,0-185-87-185-176C279,283,397,247,509,247z"/>
</svg>
